<svg id="Layer_1" data-name="Layer 1" xmlns="http://www.w3.org/2000/svg" viewBox="0 0 94.38 139.65"><defs><style>.cls-1{fill:#f6f6f6;}.cls-2{fill:#826b80;}.cls-3{fill:#ab8da8;}.cls-4{fill:#f5a784;}.cls-5{fill:#e0855c;}.cls-6{fill:#c6c6c6;}.cls-7{fill:#3b2645;}.cls-8{fill:#fff;}.cls-9{fill:#e8cee5;}.cls-10{fill:#d6bed3;}</style></defs><path class="cls-1" d="M413.19,305.52c-3,3.89-4.2,8.78-5.22,13.56s-1.91,9.69-4.34,13.93c-4,6.91-11.45,11.12-15.92,17.7A35.75,35.75,0,0,0,382.49,365c-.78,4.67-1,9.63.94,13.95,2.25,5,7.19,8.71,8.45,14.06.69,2.95.16,6,.09,9.07s.48,6.37,2.76,8.37a9.24,9.24,0,0,0,6.23,2c5.57,0,11.12-2.78,16.53-1.45,4.29,1.06,7.52,4.49,11,7.23s8.15,5,12.21,3.2c3-1.33,4.77-4.51,7.26-6.72,3.4-3,8.11-4.11,11.77-6.8A19,19,0,0,0,466.83,396a28.51,28.51,0,0,0-1.25-14c-1.66-5.07-4.4-9.86-4.89-15.17-.6-6.54,2.3-12.82,3.81-19.2a32.54,32.54,0,0,0,.41-14.52,20.47,20.47,0,0,0-7.6-12.14c-4.4-3.18-10.24-4.23-14-8.11-2.37-2.44-3.7-5.78-6.24-8.06-3-2.72-8.26-4.07-12.21-4.78C420.42,299.23,415.78,302.12,413.19,305.52Z" transform="translate(-381.93 -293.82)"/><path class="cls-2" d="M465.36,416.41a15,15,0,0,1-14.95,14.95,14.29,14.29,0,0,1-2.63-.24,12.11,12.11,0,0,1-1.66-.39,14.76,14.76,0,0,1-3.62-1.63,13.15,13.15,0,0,1-1.3-.91,15,15,0,0,1-5.74-11.78,15,15,0,0,1,15-15,14.64,14.64,0,0,1,3.88.51,12.56,12.56,0,0,1,1.5.5,14.92,14.92,0,0,1,3.95,2.27l.5.41a14.4,14.4,0,0,1,1.12,1.09A14.89,14.89,0,0,1,465.36,416.41Z" transform="translate(-381.93 -293.82)"/><path class="cls-3" d="M462.49,413.37a15,15,0,0,1-14.95,14.95,14.38,14.38,0,0,1-2.63-.24,12,12,0,0,1-1.65-.39,14.67,14.67,0,0,1-3.63-1.63,13,13,0,0,1-1.29-.91.63.63,0,0,1-.13-.11,14.94,14.94,0,0,1,12.2-23.58,14.64,14.64,0,0,1,3.88.51,12.56,12.56,0,0,1,1.5.5,9.48,9.48,0,0,1,6.7,10.9Z" transform="translate(-381.93 -293.82)"/><path class="cls-4" d="M435.55,340.16a1.94,1.94,0,0,1-.24.86,2.16,2.16,0,0,1-1,.66,5,5,0,0,1-4.88-1.15,12.12,12.12,0,0,1-2.65-3.21l-.19-.33a2.75,2.75,0,0,1-.54-2.09,1.28,1.28,0,0,1,.11-.27l.12-.25c.05-.11.11-.21.15-.32.5-1.29-.21-3.48-.53-4.8-.41-1.66-.88-3.32-1.34-5s-.88-3.47-1.44-5.17c-.21-.63-.44-1.26-.7-1.87-1-2.33-8.75-14.28-8.75-14.28-.2-2.45,2.44-3.28,2.44-3.28l.81.84c2.19,2.3,8.22,8.83,10.82,13.44a25.86,25.86,0,0,1,1.24,2.73c1.22,3,2.85,7.6,4.16,11.8l.42,1.36c.5,1.66,1.11,3.49,1.52,5.34A16.09,16.09,0,0,1,435.55,340.16Z" transform="translate(-381.93 -293.82)"/><path class="cls-4" d="M416.94,300.49s-.77-.92-1.6-2.15-2.62-4-3.59-4.47a2.47,2.47,0,0,0-.52-.05h-.15a2.62,2.62,0,0,0-1,.24l-.08,0a2.82,2.82,0,0,0-.78.57l-.06.07a4,4,0,0,0-.54.73,20.22,20.22,0,0,1,2.16,3.83s-1.55-1.34-2.16-1.11l-.27.35s1.51,1.63,2.12,2.42a6.17,6.17,0,0,0,4,2.12S417.08,302.23,416.94,300.49Z" transform="translate(-381.93 -293.82)"/><path class="cls-5" d="M409.22,294.68l-.06.07a31.51,31.51,0,0,1,2.46,3.72s.06,0,.05,0A10.59,10.59,0,0,0,409.22,294.68Z" transform="translate(-381.93 -293.82)"/><path class="cls-5" d="M410.08,294.07l-.08,0a34.69,34.69,0,0,1,2.46,3.72,0,0,0,0,0,.05,0A10.65,10.65,0,0,0,410.08,294.07Z" transform="translate(-381.93 -293.82)"/><path class="cls-5" d="M411.23,293.82h-.15a35.07,35.07,0,0,1,2.32,3.52s.06,0,.05,0A9.7,9.7,0,0,0,411.23,293.82Z" transform="translate(-381.93 -293.82)"/><path class="cls-6" d="M475.57,433.16c-1.07.12-2.14.2-3.22.26l-87.9.05-.18,0c-.47,0-.93-.07-1.4-.13a.93.93,0,0,1,0-1.86c.46,0,.93-.09,1.4-.12h.2l87.87,0c1.09.05,2.16.14,3.23.26A.77.77,0,0,1,475.57,433.16Z" transform="translate(-381.93 -293.82)"/><path class="cls-7" d="M414.57,331.74a6.21,6.21,0,0,0-.73-.61,4.45,4.45,0,0,1-1.82-3.92,5.37,5.37,0,0,1,1.3-2.62,5,5,0,0,1,3.33-2.15.83.83,0,0,0,.35-.05,1.13,1.13,0,0,0,.37-.28c1.75-1.59,4.09.32,5,1.9a4.13,4.13,0,0,1,.33,3.34,8.51,8.51,0,0,1-1.77,2.49,5,5,0,0,0-1.22,2.11,1.6,1.6,0,0,1-1.34.94,4.31,4.31,0,0,1-2.58-.3A4.15,4.15,0,0,1,414.57,331.74Z" transform="translate(-381.93 -293.82)"/><path class="cls-4" d="M445.46,364.25a2.74,2.74,0,0,1-.25,1.26,3.74,3.74,0,0,1-2,1.59,12.93,12.93,0,0,1-7.94.89c-3.17-.75-4.8-3.29-6-6-.31-.72-.6-1.45-.87-2.17-1.56-4-4.05-6.78-7.37-9.5l-.34-.28c-2.4-2-4.28-4.31-6.58-6.51A.43.43,0,0,1,414,343a12,12,0,0,1,1-1.26,18.1,18.1,0,0,1,3-2.66,19.61,19.61,0,0,1,2.09-1.27l.06,0c.12-.07.24-.14.37-.2l.12-.06a22.55,22.55,0,0,0-2.14-3.74,1.79,1.79,0,0,1-.58-1.05.22.22,0,0,1,0-.14s0,0,0,0a.14.14,0,0,1,.09,0,.37.37,0,0,1,.15,0l.18.05.18,0,.38,0a1.9,1.9,0,0,0,.35,0c.23,0,.48,0,.75,0h.39a1.37,1.37,0,0,0,.28,0l.45-.06.48-.09.57-.16a6.8,6.8,0,0,1,1-.37.5.5,0,0,1,.21,0c.41.07.78.59,1,.9l.73,1a2.78,2.78,0,0,0,.62.66.9.9,0,0,0,.38.17h.17a2.28,2.28,0,0,0,.55-.15,35.13,35.13,0,0,1,4-1.5c1.14-.35,2.66-1.13,3-.47.42.89.83,1.79,1.21,2.68,1.63,3.76,3,7.58,4.82,11.27a63.25,63.25,0,0,1,5.4,16.56A10.06,10.06,0,0,1,445.46,364.25Z" transform="translate(-381.93 -293.82)"/><path class="cls-5" d="M425,333.52a4.89,4.89,0,0,1-7-1l-.06-.07.15,0,.33.06.18,0a4.89,4.89,0,0,0,.73.07c.23,0,.48,0,.75,0a7.7,7.7,0,0,0,1.12-.11,7.23,7.23,0,0,0,1.05-.25,8.46,8.46,0,0,0,1-.37.5.5,0,0,1,.21,0c.41.07.78.59,1,.9Z" transform="translate(-381.93 -293.82)"/><path class="cls-4" d="M420.81,323.48c.8.2,1.57,1.3,2.41,2.52,2.55,3.71,2.17,5.62.37,7.06s-4.29,2-7-1.24c-1.33-1.62-2.59-3.1-2.44-4.26C414.42,325.82,418.33,322.89,420.81,323.48Z" transform="translate(-381.93 -293.82)"/><path class="cls-4" d="M416.58,331.14s-1.6-1.18-2,.24,2.41,3,3.72,1.88C418.3,333.26,417.37,331.39,416.58,331.14Z" transform="translate(-381.93 -293.82)"/><path class="cls-5" d="M415.47,331.82a1.59,1.59,0,0,1,.81,0,1.83,1.83,0,0,1,.75.27c.07,0,0,.14-.06.13s-.38-.11-.57-.16a.87.87,0,0,1-.14.39c-.06.09-.19,0-.2-.07a.77.77,0,0,1,.09-.36,4.8,4.8,0,0,1-.67,0A.08.08,0,0,1,415.47,331.82Z" transform="translate(-381.93 -293.82)"/><path class="cls-7" d="M421.5,327s.41-.09,0-.64-.57-.27-.57-.27-.23.15.1.58S421.5,327,421.5,327Z" transform="translate(-381.93 -293.82)"/><path class="cls-7" d="M418.19,329.1s.4-.08,0-.63-.57-.27-.57-.27-.22.14.1.57S418.19,329.1,418.19,329.1Z" transform="translate(-381.93 -293.82)"/><path class="cls-5" d="M421,329.47c.15-.13.6-.27.56-.5s-.86-.9-1-1a15.13,15.13,0,0,1-1.39-1.32s0-.07.05-.05a21.47,21.47,0,0,1,2.59,2.37.11.11,0,0,1,0,.16c-.25.15-.45.35-.69.51C421,329.66,420.93,329.54,421,329.47Z" transform="translate(-381.93 -293.82)"/><path class="cls-7" d="M420,325.45c.16-.27.58-.58.91-.45a.09.09,0,0,1,0,.15c-.12.07-.26.08-.38.14a1.34,1.34,0,0,0-.33.3C420.13,325.69,420,325.57,420,325.45Z" transform="translate(-381.93 -293.82)"/><path class="cls-7" d="M416.75,328c-.08-.42.48-.83.86-.78a.11.11,0,0,1,.06.18c-.11.14-.3.18-.44.29a1.59,1.59,0,0,0-.29.35A.11.11,0,0,1,416.75,328Z" transform="translate(-381.93 -293.82)"/><path class="cls-8" d="M422.58,330.12a4.25,4.25,0,0,1-2.3,1,2.07,2.07,0,0,0,1.66.31C422.79,331.13,422.58,330.12,422.58,330.12Z" transform="translate(-381.93 -293.82)"/><path class="cls-4" d="M396,431.68c2,.48,4.58,0,6.6,0l4.57,0c1.46,0,3.13.72,3.45-1.26a14.87,14.87,0,0,0-.15-3.19.16.16,0,0,1,0-.07,8.21,8.21,0,0,1,1.72-4.78c.83-1.25,1.8-2.42,2.51-3.42a59.5,59.5,0,0,0,6.84-11.92c1.83-4.45,3.31-9.07,5.74-13.27,2.33-4,5.61-8.49,8.05-13.2.11-.23.23-.45.34-.68,2.41-4.82,3.89-9.89,2.57-15a5.29,5.29,0,0,0-1.37-2.54,8.8,8.8,0,0,1-.7-.77c-.38-.44-.74-.94-1.11-1.44-1.74-2.38-3.39-4.91-5.16-3.12a9.63,9.63,0,0,0-1.51,2.53c-1.34,2.95-2.7,7.35-3.27,9-4.44,12.73-8.16,25.68-12.81,38.26-.2.53-.47,1.3-.79,2.22-1.07,3-2.72,7.79-4.18,11.46a28.37,28.37,0,0,1-2.34,4.95,2.17,2.17,0,0,1-.24.29,10.07,10.07,0,0,1-3.67,2.57c-1.49.66-3.05,1.15-4.53,1.84C396.18,430.3,395,431.44,396,431.68Z" transform="translate(-381.93 -293.82)"/><path class="cls-4" d="M435.63,379.9c1.1,4.46,2.6,8.83,3.55,12.72,1.2,4.88,1.34,9.92,1.88,14.9a62.87,62.87,0,0,0,3.33,13.85c.18.51.35,1,.49,1.5a26.2,26.2,0,0,1,1,4.4c.09.62.15,1.27.2,1.94a2.56,2.56,0,0,0,.31,1.26,2.5,2.5,0,0,0,2,.83c3.61,0,7.18.14,10.81,0a1,1,0,0,0,.62-.18.63.63,0,0,0-.06-.89,1.87,1.87,0,0,0-.9-.42c-1.64-.42-3.1-1.12-4.72-1.56a6,6,0,0,1-2.08-.86,3.65,3.65,0,0,1-1.17-1.69,11,11,0,0,1-.49-3.41c0-.29-.58-18.87-.79-24-.24-6-.3-11.9-.82-17.85-.35-4-.53-8.26-1.29-12.32a32.44,32.44,0,0,0-1.31-4.95,8,8,0,0,0-2.69-4.05,5.36,5.36,0,0,0-.57-.34,4.4,4.4,0,0,0-5.94,1.32,6,6,0,0,0-.36.56c-.18.31-.35.63-.51,1C433.36,367.14,434.09,373.61,435.63,379.9Z" transform="translate(-381.93 -293.82)"/><path class="cls-9" d="M450.41,422.3a2.19,2.19,0,0,1-.5.27,4,4,0,0,1-1.12.27,4.93,4.93,0,0,1-.94,0c-1.49,0-3,0-3,0-.14-.49-.31-1-.49-1.5a62.87,62.87,0,0,1-3.33-13.85c-.24-2.27-.42-4.55-.64-6.83a56,56,0,0,0-1.24-8.07c-.95-3.89-2.45-8.26-3.55-12.72l-.34.68c-2.44,4.71-5.72,9.18-8.05,13.2-2.43,4.2-3.91,8.82-5.74,13.27A59.5,59.5,0,0,1,414.66,419c-.71,1-1.68,2.17-2.51,3.42-1.9.1-4.85-1.91-4.85-1.91,1.46-3.67,3.11-8.43,4.18-11.46.32-.92.59-1.69.79-2.22,4.65-12.58,8.37-25.53,12.81-38.26.57-1.62,1.93-6,3.27-9a36.18,36.18,0,0,0,6.67.59c.69,0,1.36,0,2-.07,1,0,1.84-.13,2.63-.24l.31,0,1.5-.24.51-.1c.62-.13,1.15-.26,1.56-.36a8.25,8.25,0,0,1,2.69,4.05,32.44,32.44,0,0,1,1.31,4.95c.76,4.06.94,8.32,1.29,12.32.52,5.95.58,11.88.82,17.85C449.83,403.43,450.4,422,450.41,422.3Z" transform="translate(-381.93 -293.82)"/><path class="cls-7" d="M410.58,430.43c-.32,2-2,1.26-3.45,1.26l-4.57,0c-2,0-4.64.45-6.6,0-1-.24.22-1.38.56-1.55,1.48-.69,3-1.18,4.53-1.84a10.07,10.07,0,0,0,3.67-2.57l.22-.05a2.05,2.05,0,0,1,2.26,1.66c.84.71,2.17-.16,3.23-.09A14.87,14.87,0,0,1,410.58,430.43Z" transform="translate(-381.93 -293.82)"/><path class="cls-7" d="M459.83,431.13a1,1,0,0,1-.62.18c-3.63.13-7.2,0-10.81,0a2.5,2.5,0,0,1-2-.83,2.56,2.56,0,0,1-.31-1.26c-.05-.67-.11-1.32-.2-1.94,1.09-.23,2.54.83,3.45.06a2.07,2.07,0,0,1,1.55-1.62,3.65,3.65,0,0,0,1.17,1.69,6,6,0,0,0,2.08.86c1.62.44,3.08,1.14,4.72,1.56a1.87,1.87,0,0,1,.9.42A.63.63,0,0,1,459.83,431.13Z" transform="translate(-381.93 -293.82)"/><path class="cls-4" d="M434.87,370.75a2.05,2.05,0,0,0-1.93-1.23,5.15,5.15,0,0,0-1.46.2l-.93.27a5,5,0,0,1-2.09.12c-2.73-.44-5.12-2-7.28-3.66-1.11-.84-2.16-1.8-3.31-2.59s-1.55-1.06-1-2.65l.06-.16c1.25-3.67,3.87-11.33,3.92-11.49a9.93,9.93,0,0,0,.69-2.94c.12-3.14-3.75-7.12-6.5-4.91a4.24,4.24,0,0,0-.8.87,8.42,8.42,0,0,0-1,2.49q-1.44,5-2.57,10.15c-.28,1.26-.54,2.53-.73,3.8-.09.58-.16,1.17-.21,1.75-.14,1.5-.4,3.71.29,5.09,1.13,2.27,4.35,3.69,6.59,4.52,2.46.91,5,1.65,7.51,2.37,1.66.48,3.36.95,5.08,1.31.62.13,1.28.25,1.92.34l1.18.14C433.94,374.7,435.4,372.39,434.87,370.75Zm-5.78.1a0,0,0,0,1,.06,0Z" transform="translate(-381.93 -293.82)"/><path class="cls-3" d="M444.84,359.9a1.4,1.4,0,0,1-.15.3,3,3,0,0,1-1.89,1,27.44,27.44,0,0,1-6.53.43,29.8,29.8,0,0,1-7.13-.69,3.07,3.07,0,0,1-1.13-.51,2.3,2.3,0,0,1-.6-.88c-.1-.23-.19-.48-.27-.71a18.52,18.52,0,0,0-6.13-8.57l-.34-.28-3.76,11a23.29,23.29,0,0,1-6-1.54,11.06,11.06,0,0,1-1.05-.49c.19-1.27.45-2.54.73-3.8q1.14-5.1,2.57-10.15a8.42,8.42,0,0,1,1-2.49,4.24,4.24,0,0,1,.8-.87,18.1,18.1,0,0,1,3-2.66,19.61,19.61,0,0,1,2.09-1.27l.06,0c.12-.07.24-.14.37-.2,1.23.51,2.08,1.35,3.5,1.57a2.44,2.44,0,0,0,2.58-.86,1.81,1.81,0,0,0,.19-.95,4.71,4.71,0,0,0-.11-.91c-.11-.59-.38-2-.39-2s.11-.21.15-.32c.5-1.29-.21-3.48-.53-4.8-.41-1.66-.88-3.32-1.34-5s-.88-3.47-1.44-5.17a5.2,5.2,0,0,1,3.05-2,8.38,8.38,0,0,1,2.81-.39c1.22,3,2.85,7.6,4.16,11.8l.42,1.36a111.81,111.81,0,0,0,6.24,15.34,86.92,86.92,0,0,1,4.9,13A2.85,2.85,0,0,1,444.84,359.9Z" transform="translate(-381.93 -293.82)"/><path class="cls-9" d="M404.65,309.9c-6.46,7.3-14,16.73-14,27,0,.19.31.25.34.05a41,41,0,0,1,5-14.36c2.59-4.46,5.88-8.39,9-12.51C405,309.94,404.76,309.78,404.65,309.9Z" transform="translate(-381.93 -293.82)"/><path class="cls-9" d="M401.11,326.39c-3,3.61-4.81,8.44-5.93,12.94a34.86,34.86,0,0,0-.79,14.26c0,.23.39.17.39,0a51.24,51.24,0,0,1,1.06-14c1.12-4.69,3.24-8.75,5.43-13C401.32,326.41,401.18,326.29,401.11,326.39Z" transform="translate(-381.93 -293.82)"/><path class="cls-2" d="M427.41,359.59a6.86,6.86,0,0,1-.27-.71,18.52,18.52,0,0,0-6.13-8.57l-.34-.28.85-3.41S426.56,350.41,427.41,359.59Z" transform="translate(-381.93 -293.82)"/><path class="cls-10" d="M440.42,400.67a54.75,54.75,0,0,0-1.24-8.05c-.95-3.89-2.45-8.26-3.55-12.72l.91-4.4s3.83,8.23,4.25,15.49A65,65,0,0,1,440.42,400.67Z" transform="translate(-381.93 -293.82)"/><path class="cls-9" d="M414.62,353.39a7.87,7.87,0,0,0-1.06.67,11,11,0,0,0-.95.69c-.24.2.07.54.32.42a10.65,10.65,0,0,0,1.09-.63,6.5,6.5,0,0,0,1-.65C415.3,353.63,414.93,353.26,414.62,353.39Z" transform="translate(-381.93 -293.82)"/><path class="cls-9" d="M416.29,347.05c-.23-.41-.48-.8-.74-1.2-.1-.14-.36-.05-.3.13.15.41.31.81.49,1.2a3,3,0,0,0,.64,1.14c.14.11.4.06.39-.16A2.74,2.74,0,0,0,416.29,347.05Z" transform="translate(-381.93 -293.82)"/><path class="cls-9" d="M424.2,342a8.28,8.28,0,0,0-2.67-.35.18.18,0,0,0,0,.35,8.38,8.38,0,0,0,2.64.57A.29.29,0,0,0,424.2,342Z" transform="translate(-381.93 -293.82)"/><path class="cls-9" d="M426,350.3a6.48,6.48,0,0,0-.88,0,8.42,8.42,0,0,1-.87,0c-.43,0-.42.62,0,.65a4.69,4.69,0,0,0,1.83-.08A.31.31,0,0,0,426,350.3Z" transform="translate(-381.93 -293.82)"/><path class="cls-9" d="M431,355.17c-.08-.41-.13-.82-.22-1.22a.18.18,0,0,0-.35,0,4,4,0,0,0,0,1.34c.06.4.06.83.39,1.08.13.1.29,0,.34-.14C431.28,355.9,431.07,355.51,431,355.17Z" transform="translate(-381.93 -293.82)"/><path class="cls-9" d="M432.3,345.42a3.26,3.26,0,0,0-1.12-.25,5.26,5.26,0,0,1-1.28-.45c-.2-.1-.45.17-.25.33.62.51,1.87,1.21,2.65.7A.2.2,0,0,0,432.3,345.42Z" transform="translate(-381.93 -293.82)"/><path class="cls-9" d="M438.12,351.08c-.13-.46-.22-.94-.33-1.4a.28.28,0,0,0-.54.07,5.48,5.48,0,0,0,.13,1.45c.09.37.16.9.55,1.07a.24.24,0,0,0,.3-.08C438.42,351.83,438.22,351.45,438.12,351.08Z" transform="translate(-381.93 -293.82)"/><path class="cls-9" d="M438.69,356.84a2.38,2.38,0,0,0-1.69-.46c-.18,0-1.06,0-.84.45s.67.27,1,.32a4.75,4.75,0,0,0,1.33.26A.34.34,0,0,0,438.69,356.84Z" transform="translate(-381.93 -293.82)"/><path class="cls-9" d="M433.33,340.13c-.23-.38-.73-.53-1.12-.72-.2-.11-.41-.2-.62-.29s-.54-.13-.58-.24-.13-.08-.14,0c-.07.39.3.59.59.79l.87.55a1.52,1.52,0,0,0,.77.31A.27.27,0,0,0,433.33,340.13Z" transform="translate(-381.93 -293.82)"/><path class="cls-9" d="M429.89,331.59a5.42,5.42,0,0,0-.8,2.18.2.2,0,0,0,.39.11l.39-1a5.68,5.68,0,0,0,.39-1C430.29,331.61,430,331.39,429.89,331.59Z" transform="translate(-381.93 -293.82)"/><path class="cls-9" d="M428.73,326.56a2.37,2.37,0,0,0-.9-.66,4,4,0,0,0-1.08-.49.15.15,0,0,0-.14.25,4.44,4.44,0,0,0,.92.75,2.33,2.33,0,0,0,1,.5A.24.24,0,0,0,428.73,326.56Z" transform="translate(-381.93 -293.82)"/><path class="cls-9" d="M428.55,321.4c-.07-.53-.12-1-.16-1.58,0-.37-.61-.38-.59,0,0,.57.07,1.13.12,1.69a3.11,3.11,0,0,0,.27,1.35.24.24,0,0,0,.43-.06A3.69,3.69,0,0,0,428.55,321.4Z" transform="translate(-381.93 -293.82)"/></svg>