<svg id="Слой_1" data-name="Слой 1" xmlns="http://www.w3.org/2000/svg" viewBox="0 0 1618.64 1427.43"><defs><style>.cls-1{fill:#eeeeed;}.cls-2{fill:#fff;}.cls-3{fill:#30507e;}.cls-4{fill:#ffec8f;}.cls-5{fill:#54c6b3;}.cls-6{fill:#6ee0b0;}.cls-7{fill:#358bb6;}.cls-8{fill:#ff856f;}.cls-9{fill:#ffca89;}.cls-10{fill:#b55756;}.cls-11{fill:#efefef;}.cls-12{fill:#276c9f;}.cls-13{fill:#4fbccc;}.cls-14{fill:#5ec1d1;}.cls-15{fill:#1f4666;}.cls-16{fill:#4494bc;}.cls-17{fill:#7ae2b7;}.cls-18{fill:#ffeb8c;}</style></defs><circle class="cls-1" cx="1822.09" cy="772.61" r="112.09" transform="translate(-444.45 1402.24) rotate(-45)"/><circle class="cls-2" cx="1494.51" cy="647.77" r="48.08"/><path class="cls-3" d="M1697.6,1004.22a2.5,2.5,0,0,1,0-5c24-.27,41.78-32.72,48.33-46.66a169.57,169.57,0,0,0,11-30.82c-7.6-5.38-13.87-13.51-14.75-20.87-.84-7,3.38-12.07,11.58-14a7.54,7.54,0,0,1,8,2.52c4.08,5,3.77,16.6.84,30a22,22,0,0,0,10.53,3.41c5.63,0,8.92-4.21,9.78-12.4,4.3-40.85-26-77.36-52.21-100.8a336.15,336.15,0,0,0-59.07-41.83,2.5,2.5,0,1,1,2.33-4.42,340.79,340.79,0,0,1,60,42.46c38.86,34.75,57.5,71.09,53.92,105.11-1.54,14.6-9.88,16.84-14.71,16.88H1773a25.65,25.65,0,0,1-11.67-3.32,178.15,178.15,0,0,1-10.93,30.22c-7,14.8-26,49.24-52.8,49.54ZM1756,891.6a4.14,4.14,0,0,0-1,.14c-8.55,2-8,6.92-7.77,8.53.64,5.29,5.29,11.49,11,16,2.34-11.7,2.26-20.62-.29-23.77A2.27,2.27,0,0,0,1756,891.6Z" transform="translate(-431.81 -112.47)"/><circle class="cls-1" cx="724.4" cy="472.34" r="472.34"/><path class="cls-2" d="M1224.9,667.39H592.81a4,4,0,0,1,0-8H1224.9a4,4,0,0,1,0,8Z" transform="translate(-431.81 -112.47)"/><path class="cls-2" d="M1224.9,694.76H592.81a4,4,0,0,1,0-8H1224.9a4,4,0,0,1,0,8Z" transform="translate(-431.81 -112.47)"/><path class="cls-2" d="M1224.9,722.13H592.81a4,4,0,0,1,0-8H1224.9a4,4,0,0,1,0,8Z" transform="translate(-431.81 -112.47)"/><path class="cls-2" d="M1224.9,749.5H592.81a4,4,0,0,1,0-8H1224.9a4,4,0,0,1,0,8Z" transform="translate(-431.81 -112.47)"/><path class="cls-2" d="M1224.9,776.86H592.81a4,4,0,0,1,0-8H1224.9a4,4,0,0,1,0,8Z" transform="translate(-431.81 -112.47)"/><path class="cls-2" d="M1224.9,804.23H592.81a4,4,0,0,1,0-8H1224.9a4,4,0,0,1,0,8Z" transform="translate(-431.81 -112.47)"/><path class="cls-2" d="M1224.9,831.6H592.81a4,4,0,0,1,0-8H1224.9a4,4,0,0,1,0,8Z" transform="translate(-431.81 -112.47)"/><path class="cls-2" d="M1224.9,859H592.81a4,4,0,0,1,0-8H1224.9a4,4,0,0,1,0,8Z" transform="translate(-431.81 -112.47)"/><path class="cls-2" d="M1224.9,886.34H592.81a4,4,0,0,1,0-8H1224.9a4,4,0,0,1,0,8Z" transform="translate(-431.81 -112.47)"/><path class="cls-4" d="M604.5,1536.31S620,1359.93,814.85,1409.4s252.1-29.38,352.69-12.74,344.75,52.86,366.74,140.74Z" transform="translate(-431.81 -112.47)"/><path class="cls-5" d="M1709.69,633.14l-58.18,107.45-16.54-9-11.28-6.11a9,9,0,0,1-3.63-12.19l49.62-91.62a9,9,0,0,1,12.19-3.63Z" transform="translate(-431.81 -112.47)"/><path class="cls-6" d="M1662.72,662.67l-13,39.57-14.38,29-.42.42-11.28-6.11a9,9,0,0,1-4.7-8.1C1644.56,698,1662.16,663.78,1662.72,662.67Z" transform="translate(-431.81 -112.47)"/><path class="cls-7" d="M951.19,660.47h101.59A13.21,13.21,0,0,1,1066,673.68v.22a0,0,0,0,1,0,0H938a0,0,0,0,1,0,0v-.22A13.21,13.21,0,0,1,951.19,660.47Z"/><path class="cls-7" d="M1632.73,791.62l-30.8-16.68,102.69-189.65a17.23,17.23,0,0,1,23.35-6.95l.5.27a17.23,17.23,0,0,1,7,23.36Z" transform="translate(-431.81 -112.47)"/><polygon class="cls-7" points="1362.11 1287.39 1296.98 1305.32 1119.82 661.72 1184.95 643.79 1205.1 717 1217.62 762.47 1253.31 892.15 1265.79 937.48 1293.72 1038.94 1294.19 1040.64 1313.51 1110.83 1313.78 1111.81 1362.11 1287.39"/><rect class="cls-3" x="320.43" y="1313.57" width="1065.03" height="65.67"/><rect class="cls-7" x="320.43" y="1313.57" width="1065.03" height="32.84"/><path class="cls-7" d="M743.34,1141.48,727.5,1151.9s30.64,137.49,81.61,191.43l3.86-2.55-5.73-12.93-20.33-72.23-7.82-45.34-13.75-54.1Z" transform="translate(-431.81 -112.47)"/><path class="cls-3" d="M1336.54,832.53c5.42-20.43-5.31-28.77-5.31-28.77h-14.36s-3.19-2.33-1.69,5.63a69.78,69.78,0,0,0,3.59,12.92Z" transform="translate(-431.81 -112.47)"/><path class="cls-8" d="M1315.48,743.17,1297.56,737a5,5,0,0,1-2.88-6.75l.8-1.73a5,5,0,0,1,6.56-2.42l17.13,7.91a4.93,4.93,0,0,1,2.41,6.56h0A4.94,4.94,0,0,1,1315.48,743.17Z" transform="translate(-431.81 -112.47)"/><path class="cls-9" d="M1340.18,740.82l-14.86-10.08a5.84,5.84,0,0,1-1.21-8.59h0a5.85,5.85,0,0,1,8.24-.74l13.78,11.52a5,5,0,0,1,.62,7h0A5,5,0,0,1,1340.18,740.82Z" transform="translate(-431.81 -112.47)"/><rect class="cls-9" x="1304.25" y="719.12" width="29.13" height="10.28" rx="4.97" transform="translate(-354.88 -237.65) rotate(5.6)"/><path class="cls-8" d="M1328.82,752,1314,741.89a5.85,5.85,0,0,1-1.2-8.6h0a5.84,5.84,0,0,1,8.24-.73l13.77,11.52a4.94,4.94,0,0,1,.62,7h0A4.94,4.94,0,0,1,1328.82,752Z" transform="translate(-431.81 -112.47)"/><rect class="cls-9" x="1292.87" y="730.65" width="31.72" height="9.75" rx="4.8" transform="translate(-353.83 -236.61) rotate(5.6)"/><path class="cls-8" d="M1316.05,762.71l-12.45-13a5.85,5.85,0,0,1,.61-8.66h0a5.85,5.85,0,0,1,8.21,1l11.08,14.13a4.94,4.94,0,0,1-.84,6.94h0A4.93,4.93,0,0,1,1316.05,762.71Z" transform="translate(-431.81 -112.47)"/><rect class="cls-8" x="1284.03" y="736.75" width="28.67" height="10.5" rx="4.98" transform="translate(-146.94 -470.08) rotate(17.59)"/><path class="cls-9" d="M1297.81,772.8l-7.75-16.19a5.84,5.84,0,0,1,3.29-8h0a5.85,5.85,0,0,1,7.49,3.52l6.08,16.89a5,5,0,0,1-3,6.33h0A4.94,4.94,0,0,1,1297.81,772.8Z" transform="translate(-431.81 -112.47)"/><rect class="cls-9" x="1273.19" y="742.72" width="28.67" height="9.75" rx="4.8" transform="translate(250.75 -725.25) rotate(35.88)"/><path class="cls-9" d="M1309.84,718.21s-22,.17-25.36,2-17.36,43.11-17.36,43.11l27.08,1.94s5.86-6.72,13-17c5.16-7.39,15-19.54,16.29-22.63l1-2.57-9.15-.27Z" transform="translate(-431.81 -112.47)"/><path class="cls-3" d="M1074.39,826.69s14,86.45,143.85,83.95l11.67-62.27a60.1,60.1,0,0,0-8.08-30.85c-9-15.43-11.1-20-21.52-24.18s-5.93-8.76-23.6-6.26-24.35.31-40.61,8.29S1074.39,826.69,1074.39,826.69Z" transform="translate(-431.81 -112.47)"/><path class="cls-9" d="M1213.35,691.09,1192.08,730c-15.82-15.72-88.72-48.33-101.8-57.57-3.39-2.4-3.27-7-2.84-9.92a28.18,28.18,0,0,1,.75-3.54c14.74-52.26,94.61-132.09,94.61-132.09s26.89,13.62,26.25,15.49c-.54,1.62-.6,33.24-3.77,45.29h0a9.62,9.62,0,0,1-1.81,4.11c-2.75,2.78-19.38,18.43-33.61,31.78-11.38,10.7-21.25,19.92-21.25,19.92C1163.62,662.2,1213.35,691.09,1213.35,691.09Z" transform="translate(-431.81 -112.47)"/><path class="cls-10" d="M1203.48,286.2s-12.75-7.57-23.39-7.58c-22.62,0-30.86,30.62-30.86,30.62s-22.09,4.91-21.68,24.67,7.72,47.28-1.87,60.21-61.71,53.16-38.88,79.74,41.27,8.75,46.59-2.82,10-18.14,34.4-26c0,0,19.07-8.13,8.13-37.22,0,0,15.32-7.46,4.38-28.74s-16.67-44.88,10.47-59.44l12.71-13.26Z" transform="translate(-431.81 -112.47)"/><path class="cls-10" d="M1316.87,315.78s5.59-34.51-21.85-32.48c0,0,3.17-14.42-11.38-16.46s-28,14.23-28,14.23-.32-7-11.1-6.1-23.61,10.32-29.87,31-32.31,48.58-18.76,71.3,32.58,25.43,42.35,23.35,31-21.45,31-21.45l12.93-21.29,9.59-16.26Z" transform="translate(-431.81 -112.47)"/><path class="cls-9" d="M1285.87,417.45l-2.34,28.2-1.72,20.58c-22.36,5.08-56.91-8.13-56.91-8.13,7.11-25.4,8.36-71.82,8.36-71.82s30.25,5.76,35.34,9.83c3.24,2.59,9.36,10.54,13.37,16C1284.27,415.17,1285.87,417.45,1285.87,417.45Z" transform="translate(-431.81 -112.47)"/><path class="cls-2" d="M1617.39,587.18c-36.86,0-59-10.21-72-20.34-17.83-14-27.74-34.91-29.46-62.27-6.25-99.2-44.52-128.59-81.52-157-20.62-15.84-40.1-30.79-53.47-56.86q-3.95-7.69-7.71-14.9c-16.68-32-29.86-57.31-30.7-81.66-.91-26.26,12.77-49.09,44.38-74a2.5,2.5,0,0,1,3.1,3.92c-30.23,23.84-43.34,45.4-42.49,69.92.81,23.21,13.75,48.06,30.14,79.52,2.51,4.82,5.1,9.79,7.73,14.93,12.86,25.06,31.9,39.69,52.06,55.17,18.62,14.3,37.87,29.09,53.32,53.07,17.43,27.06,27.29,62.26,30.15,107.6,1.63,25.87,10.9,45.6,27.56,58.64s50.2,26.42,113.93,14.88c2-.37,2.9-.52,3.42-.56a2.5,2.5,0,0,1,.32,5c-.3,0-1.54.25-2.85.49A258.38,258.38,0,0,1,1617.39,587.18Z" transform="translate(-431.81 -112.47)"/><circle class="cls-1" cx="1269.08" cy="127.88" r="28.6"/><circle class="cls-5" cx="1373.28" cy="984.06" r="7.86"/><circle class="cls-5" cx="1546.92" cy="1337.02" r="7.86"/><circle class="cls-5" cx="618.82" cy="1317.76" r="7.86" transform="translate(-1207.01 1625) rotate(-81.6)"/><path class="cls-8" d="M1285.87,417.45l-2.34,28.2c-28.3-10.77-24.21-28.39-24.21-28.39l22.65-5.18C1284.27,415.17,1285.87,417.45,1285.87,417.45Z" transform="translate(-431.81 -112.47)"/><path class="cls-9" d="M1283.38,430.71a45.42,45.42,0,0,1-49.74-40.66L1230.82,362l-3.17-31.45,23.82-6.42,54-14.53a9.78,9.78,0,0,1,12.28,8.48l4.37,43.46.73,7.23L1324,381A45.42,45.42,0,0,1,1283.38,430.71Z" transform="translate(-431.81 -112.47)"/><path class="cls-8" d="M1322.82,368.75a15.61,15.61,0,0,1-3,.6c-4.34.44-8-1-8.25-3.12s3.13-4.26,7.46-4.7a16.16,16.16,0,0,1,3,0Z" transform="translate(-431.81 -112.47)"/><path class="cls-1" d="M1929.09,446.84h-69a4,4,0,0,1,0-8h69a4,4,0,0,1,0,8Z" transform="translate(-431.81 -112.47)"/><path class="cls-1" d="M1797.25,446.84H1521.62a4,4,0,0,1,0-8h275.63a4,4,0,0,1,0,8Z" transform="translate(-431.81 -112.47)"/><path class="cls-11" d="M969,331.1H597.83a4,4,0,0,1,0-8H969a4,4,0,0,1,0,8Z" transform="translate(-431.81 -112.47)"/><path class="cls-9" d="M1224.9,777.69,1223.45,850l-.92,30s-49.74,137.65-104.15,203.32c0,0-18.13,40.65-58.16,30,0,0-61.92,16.26-98.82,22.51s-121.32,32.32-121.32,32.32a63.73,63.73,0,0,1-17.47-7.92c-4.12-2.81-7.83-6.39-9.64-10.84-3.29-8.07,1-24,5.84-34.82,0,0,5.12-.6,13.24-2.08,20.54-3.73,60.29-13,85-32.31,34.39-26.91,91.52-53,117.57-52.55,11.88.2,26.9-.62,30.65-10.63,3.61-9.63,17.1-111.6,26.47-143.63.36-1.22.7-2.33,1-3.33,9.38-27.52,6.63-56.15,6.63-56.15l5-8.33,11.52-19.2s80.76-23,87.59-20.67S1224.9,777.69,1224.9,777.69Z" transform="translate(-431.81 -112.47)"/><path class="cls-8" d="M1182.8,810.81c-21.22,33.55-75.23,56.41-91.11,62.58.36-1.22.7-2.33,1-3.33,9.38-27.52,6.63-56.15,6.63-56.15l5-8.33a158.35,158.35,0,0,1,13.4-10.21l30.85-4.81Z" transform="translate(-431.81 -112.47)"/><path class="cls-9" d="M1497.8,1316.39s-7.53,19.16-23,28.21a32.32,32.32,0,0,1-24.37,3.73s-1.31-7.1-4.56-18.81c-6.72-24.15-21.71-67.91-50.47-109.24-54.41-78.17-40-160.11-40-160.11-2.58-5.48-31.68-54-58-89-3.24-4.31-6.45-8.41-9.56-12.2q-3.06-3.74-6-7c-1.92-2.16-3.79-4.17-5.58-6l-.49-.49c-2.21-2.23-4.46-4.45-6.71-6.69-25.43-25.24-51.6-50.11-54.34-52.71l-.23-.22,1.17-13.49a.15.15,0,0,1,0-.07l.93-10.8,3.31-38.18,33.77-28h42.11l27.93,8.39s13.74,24.36,30.76,58.51c3.77,7.56,7.71,15.59,11.67,24,19.12,40.15,39.32,87.71,48,125.16,0,0,24.39,6.88,15,53.38C1429.21,1064.77,1477.37,1266.78,1497.8,1316.39Z" transform="translate(-431.81 -112.47)"/><path class="cls-8" d="M1269.42,875.37c4.2,25.8,1.73,50.19-.36,63.46-25.43-25.24-51.6-50.11-54.34-52.71.31-4.69.6-9.27.94-13.71a.15.15,0,0,1,0-.07q.4-5.6.93-10.8c1.54-15,4-27.39,9.35-34.33,8.45-11,6.57-20.7,29.08-18s32.49,16.14,32.49,16.14S1263.16,836.91,1269.42,875.37Z" transform="translate(-431.81 -112.47)"/><circle class="cls-2" cx="506.14" cy="331.05" r="28.6"/><path class="cls-7" d="M1331.23,803.76s-7.91,15.76-43.78,26.26c-.9.27-1.78.53-2.65.82a142.19,142.19,0,0,0-48.73,27.21,83.29,83.29,0,0,0-6.13,5.75l3.9-13.06,16.55-55.37.38-1.27,4.16-14.11,21.33-22.18S1323.72,797.92,1331.23,803.76Z" transform="translate(-431.81 -112.47)"/><path class="cls-12" d="M1284.8,830.84a142.19,142.19,0,0,0-48.73,27.21,29.75,29.75,0,0,1-2.23-7.31,45.84,45.84,0,0,1-.59-9.87c.83-21.26-2-21.48,8.17-35.34,2.76-3.77,6-7.7,9.35-11.43,8.86-10,17.92-18.49,17.92-18.49S1270.12,809.44,1284.8,830.84Z" transform="translate(-431.81 -112.47)"/><path class="cls-8" d="M1205.28,587.62h0a9.62,9.62,0,0,1-1.81,4.11c-2.75,2.78-19.38,18.43-33.61,31.78,2-7.35,5.29-21.93,4.18-35.84-1.57-19.7,11.88-41.59,11.88-41.59s13.45,17.2,17.55,28.76A35.83,35.83,0,0,1,1205.28,587.62Z" transform="translate(-431.81 -112.47)"/><path class="cls-7" d="M1218.24,910.65c4.43-22.52-12.81-48.38-24.19-67.88-6.24-10.71-17.51-31.09-19.59-32.52s-14.6.6-40,8.51-60,7.93-60,7.93c-.5-7.18,6.66-17.31,16.75-31.69,6.89-9.82,15.14-21.63,23.27-35.85a215,215,0,0,1,20.33-29.62c12.1-14.73,21.47-21.78,21.47-21.78l56.61,13.15,66,42.21C1283.38,807.74,1218.24,910.65,1218.24,910.65Z" transform="translate(-431.81 -112.47)"/><circle class="cls-1" cx="543.9" cy="938.83" r="112.09" transform="translate(-936.36 547.1) rotate(-45)"/><path class="cls-2" d="M1313.1,631.17c-8.8,18.21-16.47,32.5-16.47,32.5s-68-.42-103.83-21.68c0,0-2.06-21.15-5.11-43.21-1.9-13.67-4.16-27.7-6.56-37.26-3.64-14.57,1-41.3,11.86-64.54,7.76-16.68,18.66-31.57,31.91-38.88l21.28-14.58,35.63,22.71s3.45,5.11,8.68,13c14.69,22.15,43.33,66.08,47.72,78.77C1341.77,568.26,1326.19,604.05,1313.1,631.17Z" transform="translate(-431.81 -112.47)"/><path class="cls-12" d="M1182.8,678.68s-20.64,18.45-26.58,29.08c0,0,90.56,50,124,53.41l7.21-36.63S1187.8,678.68,1182.8,678.68Z" transform="translate(-431.81 -112.47)"/><path class="cls-8" d="M827.88,1149.72c1.58,6.81-1.39,9.58-5.27,10.53-4.12-2.81-7.83-6.39-9.64-10.84-3.29-8.07,1-24,5.84-34.82,0,0,5.12-.6,13.24-2.08C832.05,1112.51,824.24,1134,827.88,1149.72Z" transform="translate(-431.81 -112.47)"/><path class="cls-8" d="M1326.42,927.92s-18.85,28.57-29.05,43.29c-3.24-4.31-6.45-8.41-9.56-12.2q-3.06-3.74-6-7C1288.8,943.23,1326.42,927.92,1326.42,927.92Z" transform="translate(-431.81 -112.47)"/><path class="cls-9" d="M1287.45,724.54c-37.11-6.26-104.65-45.86-104.65-45.86,3.6-5.07,5.91-11.8,7.39-18.12A106.63,106.63,0,0,0,1192.8,642l7.11-1.4,31-6.1S1299.42,647,1300,666.24C1300.68,688.06,1287.45,724.54,1287.45,724.54Z" transform="translate(-431.81 -112.47)"/><path class="cls-8" d="M1219.49,651.85s-16.85,5.78-29.3,8.71A106.63,106.63,0,0,0,1192.8,642l7.11-1.4Z" transform="translate(-431.81 -112.47)"/><path class="cls-5" d="M1313.1,631.17a226.17,226.17,0,0,0-13.66,37.19s-70.77-5.11-106.64-26.37c0,0-2.06-21.15-5.11-43.21C1206.66,609.7,1257.86,635.4,1313.1,631.17Z" transform="translate(-431.81 -112.47)"/><path class="cls-3" d="M1220.2,293s-13.17-8-15.83-7.55-15,30-13.6,34.24,13.87,7.73,13.87,7.73l12.24-16.8Z" transform="translate(-431.81 -112.47)"/><path class="cls-9" d="M1392.94,649.07s-22.52,14.18-38,22.51c-12,6.5-37.9,20.56-48.79,26.49h0l-5,2.7c-37.52,18.76-53.06-20-53.06-20-9.64-18.18-17.75-45.26-24-73.78-12-54.49-17.41-114.25-14.11-127.18,5-19.71,38.14-24.71,38.14-24.71,18.66,1.15,25.12,21.78,27.81,58.9s13.57,134.67,13.57,134.67l94.23-29.61C1394.19,623.64,1392.94,649.07,1392.94,649.07Z" transform="translate(-431.81 -112.47)"/><path class="cls-5" d="M853.21,1164.62c-7.75,7.6-18.31,13.11-21.16,20.6h0c-23,60.31-4.81,130-4.07,139.29.84,10.42-15,16.26-15,16.26-53-58.37-69.62-199.3-69.62-199.3a97.09,97.09,0,0,1,11.24-5.45c4.07-1.73,8.63-3.5,13.41-5.23,23-8.41,50.81-16.21,50.81-16.21l-.07.26q-.18.87-.33,1.74c-3.31,19.12,7.94,37.79,26.07,44.71Z" transform="translate(-431.81 -112.47)"/><path class="cls-5" d="M778.51,1129.1a1.81,1.81,0,0,1-.4,0,2,2,0,0,1-1.56-1.53c-.24-1.13-5.9-27.73,2.78-39.23a13,13,0,0,1,10-5.31c4.7-.29,6.83,1.69,7.78,3.4,5.34,9.56-13.17,36.55-16.93,41.87A2,2,0,0,1,778.51,1129.1ZM790.23,1087l-.69,0a9,9,0,0,0-7,3.73c-5.58,7.39-4.09,23.25-2.89,31.21,7.76-11.73,16.79-28.49,14-33.58C793.38,1088,792.81,1087,790.23,1087Z" transform="translate(-431.81 -112.47)"/><path class="cls-6" d="M842.48,1237.79c-3.81,0-8.73-2.46-13.9-9.46-6.37-8.61-6.61-22.67-6.62-23.26a2,2,0,0,1,.81-1.64,2,2,0,0,1,1.8-.29c.57.18,13.93,4.53,20.3,13.15,3.07,4.15,4.91,8.17,5.32,11.64s-.67,6.6-3.11,8.39A7.63,7.63,0,0,1,842.48,1237.79ZM826.15,1208c.41,4.38,1.68,12.59,5.64,18,4.78,6.46,10,9.34,12.92,7.16,1.57-1.17,1.69-3.2,1.51-4.7-.23-1.94-1.21-5.21-4.57-9.74C837.69,1213.3,830.21,1209.67,826.15,1208Z" transform="translate(-431.81 -112.47)"/><path class="cls-12" d="M1366.15,886.23c-21.25,29.18-61.85,60.62-78.34,72.78-4-4.94-7.94-9.35-11.55-13,40.24-32.61,69.18-71,78.22-83.74C1358.25,869.83,1362.19,877.86,1366.15,886.23Z" transform="translate(-431.81 -112.47)"/><rect class="cls-9" x="1383.91" y="599.69" width="13.42" height="24.5" rx="6.6" transform="translate(-438.27 -97.57) rotate(-0.61)"/><path class="cls-9" d="M1391.07,611.61h0a6.31,6.31,0,0,1-7-5.55l-2.3-19.81a5.15,5.15,0,0,1,5.13-5.75h0a5.16,5.16,0,0,1,5,4l4.58,19.42A6.32,6.32,0,0,1,1391.07,611.61Z" transform="translate(-431.81 -112.47)"/><path class="cls-9" d="M1396.25,602.85s19.21-8.52,22.28-9.45a5.73,5.73,0,0,1,6.91,3.69s8.59,3.19,10.2,8.49,6,9.76,7.71,15.34a87.84,87.84,0,0,1,2.42,11.9,3.41,3.41,0,0,1-1.23,3.13l-5.88,4.76a49,49,0,0,1-43.26,9.57l-.3-.08-5.83-1.57-5.68-18.7.38-12.38Z" transform="translate(-431.81 -112.47)"/><path class="cls-8" d="M1488.94,1326.76l-14.1,17.84a32.32,32.32,0,0,1-24.37,3.73s-1.31-7.1-4.56-18.81C1454.55,1335.48,1470.53,1341.84,1488.94,1326.76Z" transform="translate(-431.81 -112.47)"/><path class="cls-10" d="M1292.62,313s-30.08,13.54-24.77,25.42,12.51,23.57,4.69,31.64-16.57,14.38-20,9-9.69,4.08-16.89-5.95-15.44-31.62-15.44-31.62V324.38s-3.36-14.33,18.08-17.95,33.38-4.88,41.64-3S1292.62,313,1292.62,313Z" transform="translate(-431.81 -112.47)"/><ellipse class="cls-9" cx="1228.4" cy="373.18" rx="11.53" ry="22.02" transform="translate(-448.4 574.14) rotate(-31.03)"/><path class="cls-8" d="M1218.51,381.13a2,2,0,0,1-1.71-1,36.14,36.14,0,0,1-5.41-16c-.33-5.46,1.32-9.57,4.63-11.56s7.7-1.52,12.38,1.33A36.13,36.13,0,0,1,1240,366.21a2,2,0,1,1-3.42,2.06,32.2,32.2,0,0,0-10.25-10.92c-3.3-2-6.3-2.49-8.24-1.32s-2.93,4.05-2.7,7.9a32.28,32.28,0,0,0,4.85,14.17,2,2,0,0,1-.69,2.74A1.91,1.91,0,0,1,1218.51,381.13Z" transform="translate(-431.81 -112.47)"/><path class="cls-8" d="M1289.53,667.86a1.93,1.93,0,0,1-1-.25,2,2,0,0,1-.8-2.71,15.43,15.43,0,0,0,.08-15.15,2,2,0,1,1,3.35-2.19,19.3,19.3,0,0,1,.08,19.25A2,2,0,0,1,1289.53,667.86Z" transform="translate(-431.81 -112.47)"/><path class="cls-9" d="M1268,545.68c-32.51,12.79-66.63-18.17-75-48.7,7.76-16.68,18.66-31.57,31.91-38.88l21.28-14.58,35.76,21.16a150.54,150.54,0,0,0,8.55,14.52C1289.9,480.38,1301.81,532.33,1268,545.68Z" transform="translate(-431.81 -112.47)"/><path class="cls-2" d="M1281.81,468.23a2,2,0,0,1-1.07-.31c-26.18-16.59-55-8-55.25-7.91a2,2,0,0,1-1.19-3.82c1.25-.38,30.8-9.25,58.58,8.35a2,2,0,0,1-1.07,3.69Z" transform="translate(-431.81 -112.47)"/><path class="cls-6" d="M828,1324.52c.84,10.42-15,16.26-15,16.26-32.69-75.74,18.32-154.39,19.08-155.55C809.09,1245.54,827.24,1315.24,828,1324.52Z" transform="translate(-431.81 -112.47)"/><path class="cls-4" d="M776,1194.92l-3.51,2L754.59,1136c4.07-1.73,8.63-3.5,13.41-5.23l14.74,46.91A14.74,14.74,0,0,1,776,1194.92Z" transform="translate(-431.81 -112.47)"/><path class="cls-7" d="M1487,1417.28l12.75,14s131.12-51.47,176.56-110.15l-3.12-3.42-11.89,7.66L1593,1356.64l-43.59,14.71-51.33,21.93Z" transform="translate(-431.81 -112.47)"/><path class="cls-5" d="M1493.7,1303.93c8.71,6.48,15,17.3,22.81,19h0c63.12,13.39,129.2-15.29,138.25-17.45,10.17-2.43,18.38,12.32,18.38,12.32-49.51,61.32-186.19,99.52-186.19,99.52a98.87,98.87,0,0,1-7.11-10.27c-2.34-3.76-4.79-8-7.24-12.45-11.86-21.46-23.85-47.7-23.85-47.7l.27,0c.59,0,1.18.06,1.77.07,19.4.32,36.12-13.67,40.15-32.65Z" transform="translate(-431.81 -112.47)"/><path class="cls-5" d="M1440.62,1392.34c-4.34,0-8.46-.66-11.74-2.42a13,13,0,0,1-6.79-9c-1-4.6.61-7,2.16-8.22,8.63-6.74,38.15,7.38,44,10.28a2,2,0,0,1-.17,3.65C1467.26,1386.92,1453.08,1392.34,1440.62,1392.34Zm-9.63-17.55a7,7,0,0,0-4.27,1c-.35.27-1.41,1.1-.72,4.2a9,9,0,0,0,4.76,6.36c8.16,4.38,23.61.46,31.29-2C1451.85,1379.76,1438.36,1374.79,1431,1374.79Z" transform="translate(-431.81 -112.47)"/><path class="cls-6" d="M1537.34,1329.83a2,2,0,0,1-2-2.31c.1-.59,2.34-14.47,9.87-22.09,3.63-3.67,7.32-6.1,10.68-7s6.62-.35,8.78,1.78,2.81,5.24,1.87,8.75-3.3,7.1-6.92,10.77c-7.53,7.61-21.38,10-22,10.12Zm21.67-27.9a7.63,7.63,0,0,0-2,.31c-1.88.52-5,2-8.91,6-4.71,4.75-7.13,12.69-8.16,17,4.26-1.08,12.18-3.6,16.87-8.35,4-4,5.4-7.1,5.91-9,.39-1.47.57-3.5-.83-4.87A3.91,3.91,0,0,0,1559,1301.93Z" transform="translate(-431.81 -112.47)"/><path class="cls-6" d="M1654.77,1305.44c10.17-2.43,18.38,12.32,18.38,12.32-69.8,44-155.37,5.71-156.63,5.13C1579.64,1336.28,1645.72,1307.6,1654.77,1305.44Z" transform="translate(-431.81 -112.47)"/><path class="cls-4" d="M1534.72,1376.74l2.54,3.16L1479.85,1407c-2.34-3.76-4.79-8-7.24-12.45l44.08-21.8A14.75,14.75,0,0,1,1534.72,1376.74Z" transform="translate(-431.81 -112.47)"/><path class="cls-10" d="M1070.85,422a1.83,1.83,0,0,1-.4-.05,2,2,0,0,1-1.56-2.36c3.63-17.7,17.06-24.4,37.54-29.47,19.45-4.81,23.47-39.41,23.51-39.76a2,2,0,0,1,4,.43c-.17,1.54-4.37,37.73-26.53,43.21-19.46,4.82-31.36,10.68-34.58,26.4A2,2,0,0,1,1070.85,422Z" transform="translate(-431.81 -112.47)"/><path class="cls-10" d="M1271.06,362.1a15.18,15.18,0,0,1-7.64-1.9,2,2,0,1,1,2-3.47c6.17,3.55,16.23-.11,20.13-5.6,1.74-2.44,2.86-6.17-1.64-10.07-14.07-12.18-2.75-27.58-2.63-27.73a2,2,0,1,1,3.19,2.4c-.38.51-9.17,12.59,2.06,22.31,5.13,4.44,6,10.2,2.28,15.41C1285.3,358.37,1277.93,362.1,1271.06,362.1Z" transform="translate(-431.81 -112.47)"/><path class="cls-8" d="M1306.19,698.07l-5,2.7c-37.52,18.76-53.06-20-53.06-20-9.64-18.18-17.75-45.26-24-73.78v0s16.63,2.12,23.72,27.54,11.67,40.44,22.51,51.69S1305.6,698.05,1306.19,698.07Z" transform="translate(-431.81 -112.47)"/><path class="cls-3" d="M1280.58,566.45a2,2,0,0,1-2-1.8c-2.28-22.7-3.84-39.7-4.62-50.52-1-13.26-2.37-23.59-4.3-31.56a2,2,0,1,1,3.88-.95c2,8.2,3.43,18.74,4.41,32.22.78,10.79,2.33,27.75,4.61,50.41a2,2,0,0,1-1.79,2.19Z" transform="translate(-431.81 -112.47)"/><path class="cls-8" d="M1140.06,654.83a2,2,0,0,1-.46-4,9,9,0,0,0,7-7.61,2,2,0,0,1,4,.34,13,13,0,0,1-10.08,11.16A1.82,1.82,0,0,1,1140.06,654.83Z" transform="translate(-431.81 -112.47)"/><path class="cls-12" d="M1174.46,812.25l-.34,0a2,2,0,0,1-1.63-2.31c7.28-42.82,31-80.64,31.25-81a2,2,0,1,1,3.38,2.14c-.23.37-23.55,37.55-30.69,79.55A2,2,0,0,1,1174.46,812.25Z" transform="translate(-431.81 -112.47)"/><path class="cls-8" d="M1118.38,1085.32a2,2,0,0,1-1.6-.8h0c-.09-.13-9.32-12.22-18.78-9.4a2,2,0,0,1-1.14-3.84c12.14-3.6,22.68,10.25,23.12,10.84a2,2,0,0,1-1.6,3.2Z" transform="translate(-431.81 -112.47)"/><path class="cls-12" d="M1246.15,863.61a1.9,1.9,0,0,1-.92-.23,2,2,0,0,1-.85-2.69c15.78-30.38,26-55.53,30.33-74.76a2,2,0,0,1,3.9.88c-4.41,19.56-14.74,45-30.68,75.72A2,2,0,0,1,1246.15,863.61Z" transform="translate(-431.81 -112.47)"/><path class="cls-7" d="M1355.12,901.79a2,2,0,0,1-1.7-.94l-13.14-21a2,2,0,0,1,3.39-2.12l13.14,21a2,2,0,0,1-1.69,3.06Z" transform="translate(-431.81 -112.47)"/><path class="cls-8" d="M1410.76,1045.41a2,2,0,0,1-1.79-1.12c-9.52-19.23,1.31-33.52,1.77-34.12a2,2,0,0,1,3.17,2.45h0c-.41.52-9.73,13-1.36,29.9a2,2,0,0,1-.9,2.68A2,2,0,0,1,1410.76,1045.41Z" transform="translate(-431.81 -112.47)"/><path class="cls-13" d="M1156.21,757.81c0,20.58-27.58,37.25-61.59,37.25q-1.75,0-3.48-.06c6.89-9.82,15.14-21.63,23.27-35.85a215,215,0,0,1,20.33-29.62C1147.88,736.36,1156.21,746.5,1156.21,757.81Z" transform="translate(-431.81 -112.47)"/><polygon class="cls-12" points="1217.62 762.47 1156.67 736.06 1205.1 717 1217.62 762.47"/><path class="cls-8" d="M1396.67,638a2,2,0,0,1-.72-.13,2,2,0,0,1-1.15-2.58c2.67-7-3.89-10.6-4.65-11a2,2,0,0,1,1.81-3.56c3.68,1.86,9.79,7.6,6.57,16A2,2,0,0,1,1396.67,638Z" transform="translate(-431.81 -112.47)"/><path class="cls-12" d="M1066.91,822.29A277.15,277.15,0,0,1,1024,818.8a2,2,0,0,1,.68-3.94c.52.09,52,8.81,84.07-2.15a2,2,0,1,1,1.29,3.78C1097.08,820.93,1081.36,822.29,1066.91,822.29Z" transform="translate(-431.81 -112.47)"/><path class="cls-12" d="M1878.3,1443.71A314.51,314.51,0,0,1,1864,1537.4h-205.4V1425.8a25.37,25.37,0,0,1,18.56-24.44l175-48.81a12.22,12.22,0,0,1,15.09,8.58A314.57,314.57,0,0,1,1878.3,1443.71Z" transform="translate(-431.81 -112.47)"/><path class="cls-3" d="M1586.5,779.66v58.18H1322a45,45,0,0,1-45-45V779.66Z" transform="translate(-431.81 -112.47)"/><path class="cls-5" d="M1525.11,837.84H1322a45,45,0,0,1-37.71-20.42h206.52a33.05,33.05,0,0,1,23.14,9.45Z" transform="translate(-431.81 -112.47)"/><path class="cls-3" d="M1638.55,842.67,1598,819.26l106.78-185a7.24,7.24,0,0,1,4.14-3.3l45.4-13.94a7.24,7.24,0,0,1,8.4,10.54Z" transform="translate(-431.81 -112.47)"/><rect class="cls-3" x="1102.47" y="640.34" width="122.58" height="95.72" rx="10.91"/><rect class="cls-3" x="319.68" y="1346.41" width="131.11" height="32.84"/><path class="cls-12" d="M1808.88,1494.76H1677.77a3.06,3.06,0,0,1-3-3v-37.53a3,3,0,0,1,3-3h131.11a3,3,0,0,1,3,3v37.53A3,3,0,0,1,1808.88,1494.76Zm-128.07-6.09h125v-31.44h-125Z" transform="translate(-431.81 -112.47)"/><rect class="cls-14" x="614.65" y="1328.16" width="20.85" height="36.48" rx="10.26"/><rect class="cls-14" x="690.95" y="1328.16" width="20.85" height="36.48" rx="10.26"/><rect class="cls-14" x="767.25" y="1328.16" width="20.85" height="36.48" rx="10.26"/><rect class="cls-14" x="843.55" y="1328.16" width="20.85" height="36.48" rx="10.26"/><path class="cls-12" d="M764.19,1536.31h-95.9V1419.16a15.63,15.63,0,0,1,15.64-15.63H799.42a15.63,15.63,0,0,1,15.64,15.63v23a15.6,15.6,0,0,1-2.14,7.89Z" transform="translate(-431.81 -112.47)"/><polygon class="cls-12" points="1265.79 937.48 1202.39 889.25 1253.31 892.15 1265.79 937.48"/><path class="cls-3" d="M1691.45,1015l-96.93-22.47a11.58,11.58,0,0,1-9-11.28h0A11.58,11.58,0,0,1,1599.75,970l96.93,22.46a11.57,11.57,0,0,1,9,11.28h0A11.58,11.58,0,0,1,1691.45,1015Z" transform="translate(-431.81 -112.47)"/><rect class="cls-7" x="195" y="1346.41" width="95.69" height="32.84" rx="16.15"/><path class="cls-7" d="M1874.62,1491.71A315,315,0,0,1,1864,1537.4H1705.64l10.32-20.1a47.11,47.11,0,0,1,41.9-25.59Z" transform="translate(-431.81 -112.47)"/><path class="cls-3" d="M2048,1539.9H1909.5a2.5,2.5,0,0,1,0-5H2048a2.5,2.5,0,0,1,0,5Z" transform="translate(-431.81 -112.47)"/><path class="cls-3" d="M1837.29,1539.9h-1375a2.5,2.5,0,1,1,0-5h1375a2.5,2.5,0,0,1,0,5Z" transform="translate(-431.81 -112.47)"/><rect class="cls-2" x="1136.24" y="666.71" width="55.04" height="42.98" rx="10.91"/><path class="cls-8" d="M1231.87,380.53c-1.64,1-4.3-.38-6.4-3.08a14.32,14.32,0,0,1-2-3.57c-1.1-2.85-.94-5.49.56-6.39,1.89-1.13,5.17.86,7.34,4.47.12.2.24.42.35.63a12.19,12.19,0,0,1,1.34,3.76C1233.35,378.27,1233,379.87,1231.87,380.53Z" transform="translate(-431.81 -112.47)"/><path class="cls-8" d="M1231.36,372c-2.17-3.6-5.45-5.6-7.34-4.47s-1.66,5,.51,8.58Z" transform="translate(-431.81 -112.47)"/><path class="cls-13" d="M1745.32,1223.3c-40.11-5.13-69-19.67-69-36.79,0-14.22,20-26.66,49.73-33.4Z" transform="translate(-431.81 -112.47)"/><path class="cls-13" d="M961.35,1426c-10.28,13.75-35.22,23.46-64.36,23.46s-54.09-9.71-64.37-23.46Z" transform="translate(-431.81 -112.47)"/><path class="cls-3" d="M1163.28,740.71c-2.18,7.36-8.85,18.86-29.28,20.31l-26-24.18a7.81,7.81,0,0,1-.39-11l13.09-14.06a7.8,7.8,0,0,1,11-.4Z" transform="translate(-431.81 -112.47)"/><path class="cls-12" d="M1129.45,763.18H1128a2,2,0,0,1,0-4h0c2,0,4,0,5.74-.15,18.52-1.31,25.18-11,27.51-18.87a22.25,22.25,0,0,0,1-5.61,2,2,0,0,1,2-2h0a2,2,0,0,1,2,2,25.74,25.74,0,0,1-1.15,6.75c-2.2,7.44-9.16,20.17-31,21.72C1132.66,763.13,1131.08,763.18,1129.45,763.18Z" transform="translate(-431.81 -112.47)"/><path class="cls-1" d="M1113.9,730.79a1.88,1.88,0,1,1-1.88-1.87A1.88,1.88,0,0,1,1113.9,730.79Z" transform="translate(-431.81 -112.47)"/><path class="cls-12" d="M1117.74,716.44a1.5,1.5,0,0,1-1-.34c-1.55-1.27-38-31.52-40.27-68-1-15.91,4.71-30.58,17-43.59a100.92,100.92,0,0,1,15.54-13.72,34.73,34.73,0,0,1-2.22-10.19c-.51-8.66,2.07-29.78,37.12-38.74,54.72-14,78.45-145.39,78.69-146.71a1.5,1.5,0,1,1,2.95.52,458.06,458.06,0,0,1-18.86,68.81c-17.31,47.18-38.18,74.19-62,80.29-23.16,5.92-35.87,18.91-34.87,35.65a32.15,32.15,0,0,0,1.78,8.69c13.91-8.67,22.45-5.81,26.08-3.59a16.6,16.6,0,0,1,6.91,19.06c-1.85,5.25-6.47,7.92-12.35,7.14-9-1.19-17.48-8.58-22-18.14a101.08,101.08,0,0,0-14.55,13c-11.69,12.38-17.13,26.28-16.18,41.33,2.23,35.21,38.81,65.62,39.18,65.92a1.5,1.5,0,0,1-1,2.66Zm-5-124.58c4,8.88,11.69,15.77,19.91,16.85,6.08.79,8.33-2.9,9.13-5.17a13.69,13.69,0,0,0-5.64-15.5C1133,586.11,1125.47,583.72,1112.74,591.86Z" transform="translate(-431.81 -112.47)"/><path class="cls-12" d="M1233.05,376.35a6.51,6.51,0,0,1-4.66,1.61,8.26,8.26,0,0,1-2.92-.51c-1.42-.54-2.34-1.46-2.34-2.51a1.87,1.87,0,0,1,.33-1.06c.74-1.16,2.68-2,4.93-2a8,8,0,0,1,2.47.36,4.28,4.28,0,0,1,.85.32A12.19,12.19,0,0,1,1233.05,376.35Z" transform="translate(-431.81 -112.47)"/><path class="cls-13" d="M1224.4,397.22l-1.47-.28a1.39,1.39,0,0,1-1.09-1.66l3.93-18.79a1.62,1.62,0,0,1,1.89-1.25h0a1.61,1.61,0,0,1,1.3,1.83l-2.93,19A1.4,1.4,0,0,1,1224.4,397.22Z" transform="translate(-431.81 -112.47)"/><path class="cls-14" d="M995.28,1357.49a39,39,0,0,1-54.49,8.72L889.35,1329a39,39,0,0,1,36.83-68,37.75,37.75,0,0,1,8.94,4.84L986.55,1303A39,39,0,0,1,995.28,1357.49Z" transform="translate(-431.81 -112.47)"/><path class="cls-14" d="M1097.6,1304.27a26.69,26.69,0,0,1-52.5-1l-7-42.87a26.69,26.69,0,1,1,52.68-8.59l.3,1.86,6.68,41A26.58,26.58,0,0,1,1097.6,1304.27Z" transform="translate(-431.81 -112.47)"/><path class="cls-15" d="M1064.67,1535.57a2,2,0,0,1-2-1.66,462.84,462.84,0,0,0-24.79-83.27c-16.59-41.31-46.44-97.08-94.47-128.19a2,2,0,1,1,2.18-3.36c48.92,31.7,79.23,88.26,96,130.14a466.14,466.14,0,0,1,25,84,2,2,0,0,1-1.63,2.31A2,2,0,0,1,1064.67,1535.57Z" transform="translate(-431.81 -112.47)"/><path class="cls-15" d="M1055.89,1499.37a2.1,2.1,0,0,1-.56-.08,2,2,0,0,1-1.36-2.48c.35-1.18,34.35-118.42,17.3-208.48a2,2,0,0,1,3.93-.74c17.23,91-17,209.16-17.39,210.34A2,2,0,0,1,1055.89,1499.37Z" transform="translate(-431.81 -112.47)"/><path class="cls-16" d="M926.18,1260.92a33.4,33.4,0,0,1-50.92,23.94,39,39,0,0,1,50.92-23.94Z" transform="translate(-431.81 -112.47)"/><path class="cls-17" d="M1097.6,1304.27a27.89,27.89,0,0,1-6.51-50.6l6.68,41A26.58,26.58,0,0,1,1097.6,1304.27Z" transform="translate(-431.81 -112.47)"/><path class="cls-15" d="M1023.37,1416.22a1.87,1.87,0,0,1-.57-.08c-8.09-2.42-31-7.61-39.67-2.64a2,2,0,0,1-2-3.47c12-6.84,41.55,1.9,42.81,2.28a2,2,0,0,1-.58,3.91Z" transform="translate(-431.81 -112.47)"/><path class="cls-15" d="M1073.61,1411.4a2,2,0,0,1-1-3.73c.22-.13,21.45-12.28,28.39-24.73a2,2,0,1,1,3.49,1.94c-7.48,13.43-29,25.75-29.9,26.26A2,2,0,0,1,1073.61,1411.4Z" transform="translate(-431.81 -112.47)"/><path class="cls-14" d="M882.9,1249.55a2,2,0,0,1-1.57-.75,2,2,0,0,1,.32-2.81c.77-.62,19.14-15,36-5.76a2,2,0,1,1-1.93,3.5c-14.57-8-31.44,5.25-31.6,5.38A2,2,0,0,1,882.9,1249.55Z" transform="translate(-431.81 -112.47)"/><path class="cls-14" d="M1096.54,1233.64a2,2,0,0,1-1.86-1.27c-5.68-14.33-20.48-14.83-21.11-14.84a2,2,0,0,1,0-4h0c.73,0,18.07.51,24.75,17.37a2,2,0,0,1-1.12,2.6A2.11,2.11,0,0,1,1096.54,1233.64Z" transform="translate(-431.81 -112.47)"/><path class="cls-3" d="M1680.86,567h-.19a2.5,2.5,0,0,1-2.31-2.68l2.47-33.06a2.5,2.5,0,1,1,5,.37l-2.47,33.07A2.5,2.5,0,0,1,1680.86,567Z" transform="translate(-431.81 -112.47)"/><path class="cls-3" d="M1705.41,567a2.5,2.5,0,0,1-1.72-4.32l58.3-55.14a2.5,2.5,0,1,1,3.44,3.63l-58.31,55.15A2.51,2.51,0,0,1,1705.41,567Z" transform="translate(-431.81 -112.47)"/><path class="cls-2" d="M1421.83,323.1a69,69,0,0,0,.72,10,67.92,67.92,0,0,0,4.93,17.47,69.3,69.3,0,0,0,55.27,41.32,71.67,71.67,0,0,0,8.21.5l104.94.14a69.22,69.22,0,0,0,.19-138.44L1491.15,254A69.23,69.23,0,0,0,1421.83,323.1Z" transform="translate(-431.81 -112.47)"/><path class="cls-5" d="M1596,394.56h-.1L1491,394.42a74.67,74.67,0,0,1-8.44-.51,71.35,71.35,0,0,1-41.89-20.43,70.93,70.93,0,0,1-20.06-40.07,71.81,71.81,0,0,1-.74-10.31h0A71.31,71.31,0,0,1,1491.05,252h.1l104.95.14a71.22,71.22,0,0,1-.1,142.44Zm-172.17-71.45A67.26,67.26,0,0,0,1483,389.94a71.16,71.16,0,0,0,8,.48l105,.14h.09a67.22,67.22,0,0,0,.09-134.44L1491.14,256h-.09a67.3,67.3,0,0,0-67.22,67.13Z" transform="translate(-431.81 -112.47)"/><path class="cls-18" d="M1422.55,333.13a67.92,67.92,0,0,0,4.93,17.47,69.3,69.3,0,0,0,55.27,41.32,56.83,56.83,0,0,0-60.2-58.79Z" transform="translate(-431.81 -112.47)"/><path class="cls-5" d="M1596,394.49h-105a71.22,71.22,0,0,1,0-142.44h105a71.22,71.22,0,1,1,0,142.44Zm-105-138.44a67.3,67.3,0,0,0-67.22,67.22,67.24,67.24,0,0,0,67.22,67.22h105a67.22,67.22,0,0,0,0-134.44Z" transform="translate(-431.81 -112.47)"/><path class="cls-5" d="M1517.88,392.49s-17.25,21.46-51,30.8c0,0,17.24-17.78,17.6-30.8Z" transform="translate(-431.81 -112.47)"/><path class="cls-5" d="M1466.87,425.29a2,2,0,0,1-1.44-3.39c.17-.17,16.71-17.38,17-29.47a2,2,0,0,1,2-1.94h33.41a2,2,0,0,1,1.55,3.25c-.72.9-18,22.07-52,31.48A1.88,1.88,0,0,1,1466.87,425.29Zm19.44-30.8c-1.17,8.77-8.3,18.76-13.23,24.77a107.09,107.09,0,0,0,40.22-24.77Zm31.57,0Z" transform="translate(-431.81 -112.47)"/><path class="cls-5" d="M1714.27,394.56H1678a2,2,0,0,1,0-4h36.3a2,2,0,0,1,0,4Z" transform="translate(-431.81 -112.47)"/><path class="cls-5" d="M1656.29,394.56H1561a2,2,0,0,1,0-4h95.33a2,2,0,0,1,0,4Z" transform="translate(-431.81 -112.47)"/><path class="cls-5" d="M1532,294.64h-39.66a4,4,0,0,1,0-8H1532a4,4,0,0,1,0,8Z" transform="translate(-431.81 -112.47)"/><path class="cls-3" d="M1549.26,313h-56.89a4,4,0,0,1,0-8h56.89a4,4,0,0,1,0,8Z" transform="translate(-431.81 -112.47)"/><path class="cls-7" d="M1515.62,331.42h-23.25a4,4,0,0,1,0-8h23.25a4,4,0,0,1,0,8Z" transform="translate(-431.81 -112.47)"/><rect class="cls-5" x="1140.01" y="166.07" width="47.18" height="85.2" rx="12.17"/><path class="cls-2" d="M1612.54,304c0,9.46-17.13,27.81-17.13,27.81s-17.13-18.35-17.13-27.81a17.13,17.13,0,1,1,34.26,0Z" transform="translate(-431.81 -112.47)"/><path class="cls-5" d="M1600.67,301.28a5.26,5.26,0,1,1-5.26-5.26A5.26,5.26,0,0,1,1600.67,301.28Z" transform="translate(-431.81 -112.47)"/></svg>